<svg width="122" height="159" viewBox="0 0 122 159" fill="none" xmlns="http://www.w3.org/2000/svg">
<mask id="path-1-inside-1_2_4" fill="white">
<path fill-rule="evenodd" clip-rule="evenodd" d="M5 0C2.23858 0 0 2.23857 0 5V154C0 156.761 2.23858 159 5 159H117C119.761 159 122 156.761 122 154V5C122 2.23858 119.761 0 117 0H5ZM11 6C8.23858 6 6 8.23858 6 11V111C6 113.761 8.23858 116 11 116H111C113.761 116 116 113.761 116 111V11C116 8.23858 113.761 6 111 6H11Z"/>
</mask>
<path fill-rule="evenodd" clip-rule="evenodd" d="M5 0C2.23858 0 0 2.23857 0 5V154C0 156.761 2.23858 159 5 159H117C119.761 159 122 156.761 122 154V5C122 2.23858 119.761 0 117 0H5ZM11 6C8.23858 6 6 8.23858 6 11V111C6 113.761 8.23858 116 11 116H111C113.761 116 116 113.761 116 111V11C116 8.23858 113.761 6 111 6H11Z" fill="#F9E7E7"/>
<path d="M1 5C1 2.79086 2.79086 1 5 1V-1C1.68629 -1 -1 1.68629 -1 5H1ZM1 154V5H-1V154H1ZM5 158C2.79086 158 1 156.209 1 154H-1C-1 157.314 1.68629 160 5 160V158ZM117 158H5V160H117V158ZM121 154C121 156.209 119.209 158 117 158V160C120.314 160 123 157.314 123 154H121ZM121 5V154H123V5H121ZM117 1C119.209 1 121 2.79086 121 5H123C123 1.68629 120.314 -1 117 -1V1ZM5 1H117V-1H5V1ZM7 11C7 8.79086 8.79086 7 11 7V5C7.68629 5 5 7.68629 5 11H7ZM7 111V11H5V111H7ZM11 115C8.79086 115 7 113.209 7 111H5C5 114.314 7.68629 117 11 117V115ZM111 115H11V117H111V115ZM115 111C115 113.209 113.209 115 111 115V117C114.314 117 117 114.314 117 111H115ZM115 11V111H117V11H115ZM111 7C113.209 7 115 8.79086 115 11H117C117 7.68629 114.314 5 111 5V7ZM11 7H111V5H11V7Z" fill="black" mask="url(#path-1-inside-1_2_4)"/>
</svg>
