<svg width="301" height="391" viewBox="0 0 301 391" fill="none" xmlns="http://www.w3.org/2000/svg">
<mask id="path-1-inside-1_2_4" fill="white">
<path fill-rule="evenodd" clip-rule="evenodd" d="M5.98743 0C3.226 0 0.987427 2.23857 0.987427 4.99999V386C0.987427 388.761 3.22599 391 5.98742 391H296C298.761 391 301 388.761 301 386V5C301 2.23858 298.761 0 296 0H5.98743ZM20.7421 14.7547C17.9807 14.7547 15.7421 16.9933 15.7421 19.7547V280.258C15.7421 283.019 17.9807 285.258 20.7422 285.258H281.245C284.007 285.258 286.245 283.019 286.245 280.258V19.7547C286.245 16.9933 284.007 14.7547 281.245 14.7547H20.7421Z"/>
</mask>
<path fill-rule="evenodd" clip-rule="evenodd" d="M5.98743 0C3.226 0 0.987427 2.23857 0.987427 4.99999V386C0.987427 388.761 3.22599 391 5.98742 391H296C298.761 391 301 388.761 301 386V5C301 2.23858 298.761 0 296 0H5.98743ZM20.7421 14.7547C17.9807 14.7547 15.7421 16.9933 15.7421 19.7547V280.258C15.7421 283.019 17.9807 285.258 20.7422 285.258H281.245C284.007 285.258 286.245 283.019 286.245 280.258V19.7547C286.245 16.9933 284.007 14.7547 281.245 14.7547H20.7421Z" fill="#F9E7E7"/>
<path d="M1.98743 4.99999C1.98743 2.79085 3.77829 1 5.98743 1V-1C2.67372 -1 -0.0125732 1.68628 -0.0125732 4.99999H1.98743ZM1.98743 386V4.99999H-0.0125732V386H1.98743ZM5.98742 390C3.77828 390 1.98743 388.209 1.98743 386H-0.0125732C-0.0125732 389.314 2.6737 392 5.98742 392V390ZM296 390H5.98742V392H296V390ZM300 386C300 388.209 298.209 390 296 390V392C299.314 392 302 389.314 302 386H300ZM300 5V386H302V5H300ZM296 1C298.209 1 300 2.79086 300 5H302C302 1.68629 299.314 -1 296 -1V1ZM5.98743 1H296V-1H5.98743V1ZM16.7421 19.7547C16.7421 17.5456 18.533 15.7547 20.7421 15.7547V13.7547C17.4284 13.7547 14.7421 16.441 14.7421 19.7547H16.7421ZM16.7421 280.258V19.7547H14.7421V280.258H16.7421ZM20.7422 284.258C18.533 284.258 16.7421 282.467 16.7421 280.258H14.7421C14.7421 283.572 17.4284 286.258 20.7422 286.258V284.258ZM281.245 284.258H20.7422V286.258H281.245V284.258ZM285.245 280.258C285.245 282.467 283.454 284.258 281.245 284.258V286.258C284.559 286.258 287.245 283.572 287.245 280.258H285.245ZM285.245 19.7547V280.258H287.245V19.7547H285.245ZM281.245 15.7547C283.454 15.7547 285.245 17.5456 285.245 19.7547H287.245C287.245 16.441 284.559 13.7547 281.245 13.7547V15.7547ZM20.7421 15.7547H281.245V13.7547H20.7421V15.7547Z" fill="black" mask="url(#path-1-inside-1_2_4)"/>
</svg>
